<svg width="54" height="54" viewBox="0 0 54 54" fill="none" xmlns="http://www.w3.org/2000/svg">
<circle cx="27" cy="27" r="27" fill="#FEFFFE"/>
<path fill-rule="evenodd" clip-rule="evenodd" d="M12.8574 34.2812C14.9539 19.9535 16.4692 13.6692 18.9794 12.0627C19.0516 13.564 19.8052 14.8513 22.5045 16.1361C20.454 18.9897 20.8189 22.6022 22.4591 25.8811C23.2977 26.6786 24.1319 27.4799 24.8481 28.3822C25.3911 29.0874 26.1056 29.5308 26.9775 29.7336C27.7486 29.5644 28.4348 29.183 29.055 28.6421C29.8282 27.7377 30.6362 26.8959 31.496 26.1474C32.4476 24.8276 32.9853 22.8589 32.8982 19.9107C32.9038 18.4985 32.4773 17.1649 31.3401 15.9607C33.2865 15.1857 34.797 14.1038 34.8718 12.0107C37.8621 14.4967 39.4127 23.2258 40.325 34.7229L40.7146 35.3986C33.9184 50.3881 18.6589 49.2832 13.085 34.5644C13.0569 34.49 12.8899 34.3542 12.8574 34.2812ZM40.0034 34.8822L38.3268 34.8816C33.6207 46.5586 18.6647 45.1451 15.2917 34.4824L13.7887 34.421C17.1309 44.3718 24.9815 45.4544 26.8682 45.4233C29.1281 45.3859 36.974 44.3926 40.0034 34.8822ZM37.8416 34.7652L37.8006 34.6743L35.9244 21.4961L36.8722 34.6743L36.5089 34.8302C31.762 41.3054 23.1278 41.9137 17.9989 34.6743L16.5458 34.6263L17.2339 21.4961L15.5331 34.0375L15.7297 34.6743C17.9553 40.3894 23.0323 42.549 26.7772 42.5388C30.6075 42.5284 35.4743 40.5205 37.8416 34.7652ZM35.829 34.6743H34.6325L33.6911 26.5841L33.9248 34.6743H33.646C29.8472 38.7572 24.4117 39.0901 20.5307 34.6838L19.9476 34.6849L20.2722 26.5841L19.1946 34.6743L18.5602 34.6874C20.0587 36.6344 23.5126 39.4046 27.2576 39.3944C31.0879 39.3839 34.7732 36.4407 35.829 34.6743ZM32.8102 34.6743L31.1336 34.6736C28.4437 35.8971 25.8629 35.8553 23.3808 34.6708L21.4103 34.6743C22.9087 36.6213 25.2671 37.3207 27.1538 37.2895C29.4138 37.2521 31.7284 36.1029 32.8102 34.6743ZM23.6763 33.0045C26.0139 33.9639 28.6006 33.9586 31.1914 32.9732L31.177 34.0602C28.9375 35.1762 26.2448 35.2255 23.6763 34.2974V33.0045ZM23.8549 31.2277C26.5629 31.3884 28.9892 30.6859 31.1259 29.0968L31.0796 32.3191C28.8401 33.4352 26.4233 33.4487 23.8549 32.5206V31.2277Z" fill="url(#paint0_linear_334_342)"/>
<path fill-rule="evenodd" clip-rule="evenodd" d="M27.0692 11.0926C26.7542 9.83233 25.8276 9.02008 24.3354 8.59137C26.0901 8.00512 27.9085 7.97785 29.8017 8.60438C28.1799 9.05337 27.3861 9.86189 27.0692 11.0926Z" fill="#E9BC47"/>
<path fill-rule="evenodd" clip-rule="evenodd" d="M20.8744 13.1455C18.4126 9.23352 26.8211 7.84686 24.9588 12.1051C23.6987 14.1383 25.3255 15.0506 27.0685 15.6922V15.668C28.8113 15.0265 30.4382 14.1142 29.178 12.081C27.3158 7.82267 35.7243 9.20939 33.2625 13.1213C32.7222 13.8376 31.6601 14.4942 30.1466 15.033C29.2882 15.3387 26.1206 15.9883 28.2831 16.9934C27.9423 17.0253 27.3919 16.9876 27.0685 16.4996V16.5238C26.7449 17.0117 26.1945 17.0495 25.8537 17.0176C28.0162 16.0125 24.8487 15.3628 23.9903 15.0572C22.4767 14.5183 21.4147 13.8618 20.8744 13.1455Z" fill="#E9BC47"/>
<path fill-rule="evenodd" clip-rule="evenodd" d="M26.1017 13.1256C25.8986 13.0449 25.8124 13.0657 25.7998 12.9503L25.7187 11.9335C25.6812 11.8405 25.5971 11.8326 25.5336 11.9303C25.3582 12.2604 25.2676 12.6331 25.2999 13.0672C25.5246 13.74 26.5671 13.3412 26.1017 13.1256Z" fill="#E9BC47"/>
<path fill-rule="evenodd" clip-rule="evenodd" d="M28.0949 13.1256C28.298 13.0449 28.3842 13.0657 28.3968 12.9503L28.478 11.9335C28.5153 11.8405 28.5996 11.8326 28.663 11.9303C28.8383 12.2604 28.929 12.6331 28.8967 13.0672C28.672 13.74 27.6294 13.3412 28.0949 13.1256Z" fill="#E9BC47"/>
<path fill-rule="evenodd" clip-rule="evenodd" d="M22.475 18.3688C22.1731 18.4619 21.9547 18.6092 21.7998 18.7976C22.434 18.6612 23.0981 18.5566 23.715 18.9242L25.6691 20.1229C25.7644 20.1536 25.8464 20.1313 25.9158 20.058C25.9489 19.945 25.939 19.8374 25.9028 19.7331C25.1615 19.1922 24.4065 18.7365 23.6305 18.4208C23.2185 18.2513 22.8351 18.2438 22.475 18.3688Z" fill="#E9BC47"/>
<path fill-rule="evenodd" clip-rule="evenodd" d="M22.7723 20.6329L22.1296 20.1197L22.8112 20.3601C23.8588 19.7942 24.7077 20.3819 25.473 20.9903C25.3483 20.5548 25.0221 20.1697 24.5511 19.8209C23.9089 19.3524 23.1268 19.2282 22.2594 19.3141C21.6325 19.4012 21.4438 19.8693 21.5713 20.451C21.9068 21.1515 22.4938 21.6447 23.2397 21.8283C23.1077 21.6982 23.0385 21.5729 23.019 21.4515C22.9822 21.2306 23.0017 21.0531 23.0775 20.9187C23.1852 20.823 23.3181 20.8347 23.4605 20.8863C23.327 22.1146 24.6231 22.2019 24.8173 21.2306L25.012 21.3995C25.106 21.527 25.1475 21.7312 25.129 22.0232L25.6223 22.1337C25.6157 21.8576 25.5793 21.5932 25.46 21.3605C25.2485 21.0124 24.9947 20.697 24.5576 20.5225C23.8691 20.2861 23.3996 20.3127 22.7723 20.6329ZM24.3693 20.8475C24.5217 20.8475 24.6453 20.9622 24.6453 21.1036C24.6453 21.245 24.5217 21.3597 24.3693 21.3597C24.2169 21.3597 24.0933 21.245 24.0933 21.1036C24.0933 20.9622 24.2169 20.8475 24.3693 20.8475Z" fill="#E9BC47"/>
<path fill-rule="evenodd" clip-rule="evenodd" d="M26.5876 26.5841C26.0838 26.4937 25.5745 26.5099 25.062 26.5841C25.3192 25.7921 26.3393 25.289 27.0696 25.8302V25.8286C27.7998 25.2873 28.8199 25.7905 29.0771 26.5825C28.5646 26.5082 28.0553 26.4921 27.5515 26.5825C27.3921 26.6787 27.2467 26.7289 27.0696 26.7527C26.8924 26.7289 26.7301 26.7032 26.5876 26.5841Z" fill="#E9BC47"/>
<path fill-rule="evenodd" clip-rule="evenodd" d="M27.0695 27.8735C26.1257 27.883 25.4758 27.5065 25.0859 26.7885C25.5624 26.7328 26.0323 26.7199 26.4915 26.7768C26.8768 26.9149 27.2536 26.9151 27.621 26.7674C28.0886 26.7097 28.5504 26.6924 29.0006 26.756C28.5964 27.5368 27.9412 27.8896 27.0695 27.8735Z" fill="#E9BC47"/>
<path fill-rule="evenodd" clip-rule="evenodd" d="M26.677 24.6841C26.638 24.4557 26.1641 24.5976 25.9077 24.5542C26.0462 24.3706 26.2299 24.2646 26.5245 24.3496C26.6826 24.4014 26.7526 24.5024 26.677 24.6841Z" fill="#E9BC47"/>
<path fill-rule="evenodd" clip-rule="evenodd" d="M27.3914 24.6841C27.4303 24.4557 27.9043 24.5976 28.1607 24.5542C28.0222 24.3706 27.8385 24.2646 27.544 24.3496C27.3858 24.4014 27.3158 24.5024 27.3914 24.6841Z" fill="#E9BC47"/>
<path fill-rule="evenodd" clip-rule="evenodd" d="M31.6362 18.2521C31.9381 18.3453 32.1566 18.4925 32.3114 18.6809C31.6773 18.5446 31.0131 18.4399 30.3963 18.8076L28.4422 20.0062C28.3469 20.0369 28.2648 20.0145 28.1955 19.9412C28.1624 19.8282 28.1723 19.7207 28.2084 19.6164C28.9497 19.0754 29.7047 18.6198 30.4807 18.3041C30.8927 18.1346 31.2761 18.127 31.6362 18.2521Z" fill="#E9BC47"/>
<path fill-rule="evenodd" clip-rule="evenodd" d="M31.3373 20.516L31.98 20.0028L31.2984 20.2431C30.2508 19.6773 29.402 20.265 28.6366 20.8733C28.7614 20.4379 29.0875 20.0528 29.5585 19.7039C30.2007 19.2354 30.9828 19.1113 31.8502 19.1972C32.4771 19.2843 32.6658 19.7524 32.5383 20.3341C32.2028 21.0345 31.6158 21.5279 30.8699 21.7114C31.0019 21.5813 31.0711 21.456 31.0906 21.3345C31.1274 21.1137 31.108 20.9362 31.0322 20.8019C30.9245 20.7061 30.7915 20.7178 30.6492 20.7694C30.7826 21.9977 29.4865 22.0849 29.2923 21.1137L29.0976 21.2826C29.0036 21.4101 28.9621 21.6142 28.9807 21.9063L28.4873 22.0167C28.4939 21.7407 28.5304 21.4763 28.6496 21.2437C28.8611 20.8956 29.1149 20.58 29.552 20.4056C30.2405 20.1691 30.7099 20.1957 31.3373 20.516ZM29.7403 20.7306C29.5879 20.7306 29.4644 20.8452 29.4644 20.9867C29.4644 21.1282 29.5879 21.2428 29.7403 21.2428C29.8927 21.2428 30.0163 21.1282 30.0163 20.9867C30.0163 20.8452 29.8927 20.7306 29.7403 20.7306Z" fill="#E9BC47"/>
<defs>
<linearGradient id="paint0_linear_334_342" x1="40.7145" y1="46.1339" x2="12.8335" y2="12.0302" gradientUnits="userSpaceOnUse">
<stop stop-color="#CA9000"/>
<stop offset="0.0196078" stop-color="#BB7F00"/>
<stop offset="0.0392157" stop-color="#AC6E00"/>
<stop offset="0.0509804" stop-color="#915900"/>
<stop offset="0.121569" stop-color="#B3872C"/>
<stop offset="0.25098" stop-color="#D6B659"/>
<stop offset="0.501961" stop-color="#FFF6AC"/>
<stop offset="0.678431" stop-color="#EBD683"/>
<stop offset="0.74902" stop-color="#D6B659"/>
<stop offset="0.870588" stop-color="#B4882D"/>
<stop offset="0.941176" stop-color="#915900"/>
<stop offset="0.94902" stop-color="#AC6E00"/>
<stop offset="1" stop-color="#CA9000"/>
</linearGradient>
</defs>
</svg>
